<svg width="41" height="34" viewBox="0 0 41 34" fill="none" xmlns="http://www.w3.org/2000/svg">
<path fill-rule="evenodd" clip-rule="evenodd" d="M8.99993 12.6001C10.273 12.6001 11.4939 12.0944 12.394 11.1942C13.2942 10.294 13.7999 9.07314 13.7999 7.8001C13.7999 6.52706 13.2942 5.30616 12.394 4.40599C11.4939 3.50581 10.273 3.0001 8.99993 3.0001C7.72689 3.0001 6.50599 3.50581 5.60581 4.40599C4.70564 5.30616 4.19993 6.52706 4.19993 7.8001C4.19993 9.07314 4.70564 10.294 5.60581 11.1942C6.50599 12.0944 7.72689 12.6001 8.99993 12.6001ZM8.99993 15.0001C9.94545 15.0001 10.8817 14.8139 11.7552 14.452C12.6288 14.0902 13.4225 13.5598 14.0911 12.8913C14.7597 12.2227 15.29 11.429 15.6519 10.5554C16.0137 9.68187 16.1999 8.74562 16.1999 7.8001C16.1999 6.85458 16.0137 5.91832 15.6519 5.04478C15.29 4.17123 14.7597 3.37751 14.0911 2.70893C13.4225 2.04035 12.6288 1.51 11.7552 1.14817C10.8817 0.786332 9.94545 0.600098 8.99993 0.600098C7.09037 0.600098 5.25902 1.35867 3.90876 2.70893C2.5585 4.05919 1.79993 5.89054 1.79993 7.8001C1.79993 9.70966 2.5585 11.541 3.90876 12.8913C5.25902 14.2415 7.09037 15.0001 8.99993 15.0001Z" fill="#0085FF"/>
<path fill-rule="evenodd" clip-rule="evenodd" d="M6.24958 12.3504C6.36133 12.4618 6.44999 12.5943 6.51049 12.7401C6.57098 12.8858 6.60212 13.0421 6.60212 13.2C6.60212 13.3578 6.57098 13.5141 6.51049 13.6599C6.44999 13.8057 6.36133 13.9381 6.24958 14.0496L5.43838 14.8584C3.87726 16.4199 3.00018 18.5375 2.99998 20.7456V25.2C2.99998 25.5182 2.87355 25.8235 2.6485 26.0485C2.42346 26.2736 2.11824 26.4 1.79998 26.4C1.48172 26.4 1.17649 26.2736 0.951447 26.0485C0.726404 25.8235 0.599976 25.5182 0.599976 25.2V20.7456C0.600316 17.9011 1.73034 15.1731 3.74158 13.1616L4.55038 12.3504C4.66185 12.2386 4.79427 12.15 4.94005 12.0895C5.08584 12.029 5.24213 11.9978 5.39998 11.9978C5.55782 11.9978 5.71411 12.029 5.8599 12.0895C6.00568 12.15 6.13811 12.2386 6.24958 12.3504ZM34.5504 11.6304C34.4386 11.7418 34.35 11.8743 34.2895 12.0201C34.229 12.1658 34.1978 12.3221 34.1978 12.48C34.1978 12.6378 34.229 12.7941 34.2895 12.9399C34.35 13.0857 34.4386 13.2181 34.5504 13.3296L35.3616 14.1384C36.1347 14.9115 36.7479 15.8293 37.1663 16.8395C37.5847 17.8496 37.8 18.9322 37.8 20.0256V25.2C37.8 25.5182 37.9264 25.8235 38.1514 26.0485C38.3765 26.2736 38.6817 26.4 39 26.4C39.3182 26.4 39.6235 26.2736 39.8485 26.0485C40.0736 25.8235 40.2 25.5182 40.2 25.2V20.0256C40.1996 17.1811 39.0696 14.4531 37.0584 12.4416L36.2496 11.6304C36.1381 11.5186 36.0057 11.43 35.8599 11.3695C35.7141 11.309 35.5578 11.2778 35.4 11.2778C35.2421 11.2778 35.0858 11.309 34.9401 11.3695C34.7943 11.43 34.6618 11.5186 34.5504 11.6304Z" fill="#0085FF"/>
<path fill-rule="evenodd" clip-rule="evenodd" d="M30.6 12.6001C29.327 12.6001 28.1061 12.0944 27.2059 11.1942C26.3057 10.294 25.8 9.07314 25.8 7.8001C25.8 6.52706 26.3057 5.30616 27.2059 4.40599C28.1061 3.50581 29.327 3.0001 30.6 3.0001C31.8731 3.0001 33.094 3.50581 33.9941 4.40599C34.8943 5.30616 35.4 6.52706 35.4 7.8001C35.4 9.07314 34.8943 10.294 33.9941 11.1942C33.094 12.0944 31.8731 12.6001 30.6 12.6001ZM30.6 15.0001C29.6545 15.0001 28.7182 14.8139 27.8447 14.452C26.9712 14.0902 26.1774 13.5598 25.5089 12.8913C24.8403 12.2227 24.3099 11.429 23.9481 10.5554C23.5863 9.68187 23.4 8.74562 23.4 7.8001C23.4 6.85458 23.5863 5.91832 23.9481 5.04478C24.3099 4.17123 24.8403 3.37751 25.5089 2.70893C26.1774 2.04035 26.9712 1.51 27.8447 1.14817C28.7182 0.786332 29.6545 0.600098 30.6 0.600098C32.5096 0.600098 34.3409 1.35867 35.6912 2.70893C37.0415 4.05919 37.8 5.89054 37.8 7.8001C37.8 9.70966 37.0415 11.541 35.6912 12.8913C34.3409 14.2415 32.5096 15.0001 30.6 15.0001ZM19.8 22.8001C18.2087 22.8001 16.6826 23.4322 15.5574 24.5575C14.4322 25.6827 13.8 27.2088 13.8 28.8001V31.9201C13.8 32.2384 13.6736 32.5436 13.4486 32.7686C13.2235 32.9937 12.9183 33.1201 12.6 33.1201C12.2818 33.1201 11.9765 32.9937 11.7515 32.7686C11.5265 32.5436 11.4 32.2384 11.4 31.9201V28.8001C11.4 26.5723 12.285 24.4357 13.8603 22.8604C15.4356 21.2851 17.5722 20.4001 19.8 20.4001C22.0278 20.4001 24.1644 21.2851 25.7397 22.8604C27.315 24.4357 28.2 26.5723 28.2 28.8001V31.9201C28.2 32.2384 28.0736 32.5436 27.8486 32.7686C27.6235 32.9937 27.3183 33.1201 27 33.1201C26.6818 33.1201 26.3765 32.9937 26.1515 32.7686C25.9265 32.5436 25.8 32.2384 25.8 31.9201V28.8001C25.8 28.0122 25.6448 27.232 25.3433 26.504C25.0418 25.776 24.5998 25.1146 24.0427 24.5575C23.4855 24.0003 22.8241 23.5583 22.0961 23.2568C21.3682 22.9553 20.588 22.8001 19.8 22.8001Z" fill="#0085FF"/>
<path fill-rule="evenodd" clip-rule="evenodd" d="M19.8 19.2002C21.073 19.2002 22.2939 18.6945 23.1941 17.7943C24.0943 16.8941 24.6 15.6732 24.6 14.4002C24.6 13.1272 24.0943 11.9063 23.1941 11.0061C22.2939 10.1059 21.073 9.6002 19.8 9.6002C18.5269 9.6002 17.306 10.1059 16.4059 11.0061C15.5057 11.9063 15 13.1272 15 14.4002C15 15.6732 15.5057 16.8941 16.4059 17.7943C17.306 18.6945 18.5269 19.2002 19.8 19.2002ZM19.8 21.6002C21.7095 21.6002 23.5409 20.8416 24.8911 19.4914C26.2414 18.1411 27 16.3098 27 14.4002C27 12.4906 26.2414 10.6593 24.8911 9.30903C23.5409 7.95876 21.7095 7.2002 19.8 7.2002C17.8904 7.2002 16.0591 7.95876 14.7088 9.30903C13.3585 10.6593 12.6 12.4906 12.6 14.4002C12.6 16.3098 13.3585 18.1411 14.7088 19.4914C16.0591 20.8416 17.8904 21.6002 19.8 21.6002Z" fill="#0085FF"/>
</svg>
